# xmcd
#
# Track frame offsets:
#	150
#	24330
#	47132
#	65954
#	90002
#	106247
#	122464
#	140842
#
# Disc length: 2132 seconds
#
# Revision: 1
# Processed by: cddbd v1.5.2PL0 Copyright (c) Steve Scherf et al.
# Submitted via: EZCDAudioConverter 8.0.2.1
#
DISCID=65085208
DTITLE=Nguyễn Hồng Ân - Vol 01. Nicola - Cho Người Tình Xa
DYEAR=2002
DGENRE=World Pop
TTITLE0=Oh ! Mon Amour - Mãi xa tình ơi
TTITLE1=Tình vơi
TTITLE2=Mình thôi cách xa
TTITLE3=Mưa đắng môi
TTITLE4=Nicola - Cho Người Tình Xa
TTITLE5=Niềm mơ ước
TTITLE6=Tìm về bến xưa
TTITLE7=Tình yêu đến
EXTD=
EXTT0=
EXTT1=
EXTT2=
EXTT3=
EXTT4=
EXTT5=
EXTT6=
EXTT7=
PLAYORDER=
